<svg width="63" height="63" xmlns="http://www.w3.org/2000/svg">
 <!-- Created with SVG Editor - http://github.com/mzalive/SVG Editor/ -->
 <defs>
  <filter id="svg_3_blur" x="-50%" y="-50%" width="200%" height="200%">
   <feGaussianBlur stdDeviation="0"/>
  </filter>
 </defs>
 <g>
  <title>background</title>
  <rect x="-1" y="-1" width="65" height="65" id="canvas_background" fill="none"/>
 </g>
 <g>
  <title>Layer 1</title>
  <path stroke="#000" fill="#fff" stroke-width="1.5" stroke-opacity="null" fill-opacity="null" d="m19.911496,42.516969l23.677972,0c3.413023,-0.00768 5.741416,-3.498647 5.730049,-7.090066l0,-2.414861c6.757341,-0.006451 11.659898,-6.17616 11.657373,-13.370364c0.002526,-7.322305 -4.803794,-13.338108 -10.398201,-13.332886l-36.496762,0l0,29.118725c0.005304,3.954216 2.805792,7.082385 5.82957,7.089451zm29.407264,-30.730886l0,0l1.259171,0c4.629506,-0.008909 6.114494,5.315705 6.092266,7.895531c0.004546,4.165567 -2.532235,8.16064 -7.351437,7.77296l0,-15.668491zm-48.28422,32.504016c0.004294,5.382366 3.378165,7.878328 6.093781,7.893688l48.980111,0c3.239239,-0.01536 6.078373,-3.112809 6.092771,-7.893688l-61.166664,0z" id="svg_3" filter="url(#svg_3_blur)"/>
 </g>
</svg>