<svg width="640" height="480" xmlns="http://www.w3.org/2000/svg">
 <!-- Created with SVG Editor - http://github.com/mzalive/SVG Editor/ -->
 <defs>
  <filter height="200%" width="200%" y="-50%" x="-50%" id="svg_3_blur">
   <feGaussianBlur stdDeviation="0" in="SourceGraphic"/>
  </filter>
 </defs>
 <g>
  <title>background</title>
  <rect fill="none" id="canvas_background" height="482" width="642" y="-1" x="-1"/>
 </g>
 <g>
  <title>Layer 1</title>
  <path filter="url(#svg_3_blur)" stroke="#000" id="svg_3" d="m198.490202,377.285136l246.199302,0c35.487998,-0.079854 59.698209,-36.378293 59.580021,-73.721223l0,-25.109295c70.261614,-0.067077 121.237529,-64.218595 121.211265,-139.022638c0.026264,-76.136008 -49.94899,-138.687251 -108.118631,-138.632951l-379.486782,0l0,302.771272c0.055155,41.115233 29.174118,73.641369 60.614825,73.714834zm305.771444,-319.534226l0,0l13.092634,0c48.13677,-0.092631 63.577411,55.271752 63.346287,82.096311c0.047275,43.312815 -26.329721,84.852872 -76.438921,80.821841l0,-162.918152zm-502.050647,337.97092c0.044649,55.964885 35.125554,81.917438 63.362046,82.077146l509.286395,0c33.681031,-0.159708 63.201835,-32.366428 63.35154,-82.077146l-635.999981,0z" fill-opacity="null" stroke-opacity="null" stroke-width="1.5" fill="#fff"/>
 </g>
</svg>